<svg xmlns="http://www.w3.org/2000/svg" xmlns:xlink="http://www.w3.org/1999/xlink"><symbol id="logo" viewBox="0 0 202 147"><g fill="none">
    <path fill="#1F1E1E" d="M0 0h147v147H0z"/>
    <path d="M39.965 72.439H26.633V50.032h-.032v-.033h-4.686V73h18.05v-.561ZM43.932 73h18.117v-.561H48.618V61.285h10.494v-.594H48.618V50.56h13.43v-.561H43.933V73ZM70.7 73V50.56c2.87 0 11.714 1.089 12.374 13.893V73h4.686V49.999h-4.686v10.329C81.655 54.19 77.167 49.999 70.7 49.999h-4.686V73H70.7ZM97.39 73V50.56c2.87 0 11.714 1.089 12.374 13.893V73h4.686V49.999h-4.686v10.329c-1.419-6.138-5.907-10.329-12.375-10.329h-4.686V73h4.686ZM119.393 73h4.686V49.999h-4.686V73Z" fill="#fff"/>
    <path fill="#BC3324" d="M81 92h121v42H81z"/>
    <path d="M108.922 124h.54l2.94-8.55h8.55l3.33 8.55h4.47l-8.1-20.91h-4.53l-7.2 20.91Zm7.5-20.25 4.35 11.19h-8.19l3.84-11.19ZM132.644 103.09V124h4.26v-7.23h5.07l4.89 7.2h4.86l-5.16-7.65c3-.78 5.28-2.64 5.28-6.81 0-5.22-3.81-6.87-8.25-6.87-4.68 0-6.03 3.51-6.69 7.41v-6.96h-4.26Zm5.43 4.38c.81-2.94 2.91-4.14 4.77-4.29 4.47-.42 4.65 2.43 4.65 6.33 0 6.33-3.36 6.75-6.24 6.75h-4.35s-.12-4.14 1.17-8.79ZM162.084 103.6l.03 20.4h4.26v-20.4h8.61v-.51h-21.51v.51h8.61Z" fill="#fff"/>
</g></symbol><symbol id="logout"><g fill="none">
    <path d="m8.75 18-1.422-3.633H2.75L1.344 18H0L4.516 6.531h1.117L10.125 18H8.75Zm-1.836-4.828-1.328-3.54a18.953 18.953 0 0 1-.531-1.648c-.115.5-.279 1.05-.492 1.649l-1.344 3.539h3.695ZM17.883 18H16.57v-7.453H14c-.14 1.854-.336 3.325-.586 4.414-.25 1.088-.575 1.885-.976 2.39-.396.506-.902.758-1.516.758-.281 0-.505-.03-.672-.093v-.961c.115.03.245.047.39.047.6 0 1.076-.633 1.43-1.899.354-1.265.623-3.187.805-5.765h5.008V18Zm6.375.156c-1.266 0-2.266-.385-3-1.156-.73-.77-1.094-1.841-1.094-3.21 0-1.381.339-2.477 1.016-3.29.682-.813 1.596-1.219 2.742-1.219 1.073 0 1.922.354 2.547 1.063.625.703.937 1.633.937 2.789v.82h-5.898c.026 1.005.279 1.768.758 2.29.484.52 1.164.78 2.039.78.922 0 1.833-.192 2.734-.578v1.157a6.631 6.631 0 0 1-1.305.421 7.041 7.041 0 0 1-1.476.133Zm-.352-7.789c-.687 0-1.237.224-1.648.672-.406.448-.646 1.068-.719 1.86h4.477c0-.818-.183-1.443-.547-1.876-.365-.437-.886-.656-1.563-.656Zm10.711-.93h1.422l-3.695 4.133 4 4.43h-1.516l-3.906-4.336V18h-1.297V9.437h1.297v4.165l3.695-4.165Zm6.742 8.72c-1.24 0-2.2-.381-2.882-1.141-.677-.766-1.016-1.847-1.016-3.243 0-1.432.344-2.539 1.031-3.32.693-.781 1.677-1.172 2.953-1.172.412 0 .823.045 1.235.133.411.089.734.193.968.313l-.398 1.101a5.824 5.824 0 0 0-.938-.281 4.055 4.055 0 0 0-.898-.117c-1.74 0-2.61 1.11-2.61 3.328 0 1.052.212 1.86.633 2.422.428.562 1.058.843 1.891.843.714 0 1.445-.153 2.195-.46v1.148c-.573.297-1.294.445-2.164.445ZM50.83 18l-.259-1.219h-.062c-.427.537-.854.901-1.281 1.094-.422.188-.951.281-1.586.281-.85 0-1.516-.218-2-.656-.48-.438-.72-1.06-.72-1.867 0-1.73 1.384-2.636 4.15-2.719l1.452-.047v-.531c0-.672-.145-1.167-.437-1.484-.286-.323-.747-.485-1.383-.485-.713 0-1.52.219-2.422.656l-.398-.992c.422-.229.883-.409 1.383-.539a6.051 6.051 0 0 1 1.515-.195c1.021 0 1.776.226 2.266.68.495.453.742 1.18.742 2.18V18h-.96Zm-2.93-.914c.807 0 1.44-.221 1.898-.664.463-.443.695-1.063.695-1.86v-.773l-1.297.055c-1.03.036-1.776.198-2.234.484-.453.281-.68.722-.68 1.32 0 .47.14.826.422 1.07.287.245.685.368 1.195.368Zm7.867-7.648v3.585h4.797V9.438h1.296V18h-1.297v-3.86h-4.796V18h-1.297V9.437h1.297Zm16.28 11.523H70.79V18h-5.984v2.96h-1.25v-4.077h.672c.697-.948 1.244-2.06 1.64-3.336.396-1.276.602-2.646.617-4.11h4.336v7.446h1.227v4.078Zm-2.476-4.078V10.46h-1.922a14.235 14.235 0 0 1-.671 3.516c-.375 1.182-.844 2.15-1.407 2.906h4Zm8.18 1.273a3.774 3.774 0 0 1-1.531-.304 2.91 2.91 0 0 1-1.156-.954h-.094c.062.5.094.974.094 1.422v3.524h-1.297V9.437h1.054L75 10.61h.063c.333-.468.72-.807 1.164-1.015.442-.209.95-.313 1.523-.313 1.135 0 2.01.388 2.625 1.164.62.776.93 1.865.93 3.266 0 1.406-.315 2.5-.946 3.281-.625.776-1.494 1.164-2.609 1.164Zm-.188-7.773c-.874 0-1.507.242-1.898.726-.39.485-.591 1.256-.602 2.313v.289c0 1.203.201 2.065.602 2.586.401.515 1.044.773 1.93.773.74 0 1.318-.3 1.734-.898.422-.6.633-1.425.633-2.477 0-1.067-.211-1.885-.633-2.453-.416-.573-1.005-.86-1.766-.86ZM92.82 7.602c-1.255 0-2.247.419-2.976 1.257-.724.834-1.086 1.977-1.086 3.43 0 1.495.349 2.651 1.047 3.469.703.812 1.703 1.219 3 1.219.797 0 1.705-.144 2.726-.43v1.164c-.791.297-1.768.445-2.93.445-1.682 0-2.981-.51-3.898-1.531-.911-1.02-1.367-2.471-1.367-4.352 0-1.177.219-2.208.656-3.093a4.77 4.77 0 0 1 1.906-2.047c.834-.48 1.813-.719 2.938-.719 1.198 0 2.245.219 3.14.656l-.562 1.14c-.865-.405-1.73-.608-2.594-.608Zm4.82 9.57c0-.35.079-.612.235-.79.162-.181.39-.273.688-.273.302 0 .536.091.703.274.171.177.257.44.257.789 0 .338-.085.599-.257.781-.172.182-.407.274-.704.274a.949.949 0 0 1-.664-.243c-.171-.166-.257-.437-.257-.812Z" fill="#1F1E1E"/>
    <path d="m136 17 5-5-5-5M141 12h-12M141 3h4a2 2 0 0 1 2 2v14a2 2 0 0 1-2 2h-4" stroke="#1F1E1E" stroke-width="2" stroke-linecap="round" stroke-linejoin="round"/>
</g></symbol></svg>